name Walk3.mot
datacolumns 19
datarows 25
range 4.49100000 4.51500000
endheader

                time	   L_ground_force_vx	   L_ground_force_vy	   L_ground_force_vz	   L_ground_force_px	   L_ground_force_py	   L_ground_force_pz	   R_ground_force_vx	   R_ground_force_vy	   R_ground_force_vz	   R_ground_force_px	   R_ground_force_py	   R_ground_force_pz	   L_ground_torque_x	   L_ground_torque_y	   L_ground_torque_z	   R_ground_torque_x	   R_ground_torque_y	   R_ground_torque_z	
          4.49100000	          0.12148739	          0.35118095	         -0.00524204	          0.00002321	          0.00000000	          0.00003550	        -23.03735363	        885.92869313	        -66.49970620	          0.25204806	          0.00000000	          0.11766709	          0.00000000	         -0.00006139	          0.00000000	          0.00000000	         10.57832710	          0.00000000	
          4.49200000	          0.11907760	          0.34495129	         -0.00500617	         -0.00001535	          0.00000000	          0.00002096	        -22.80745554	        885.80731453	        -66.32380513	          0.25234450	          0.00000000	          0.11765681	          0.00000000	         -0.00002978	          0.00000000	          0.00000000	         10.52976405	          0.00000000	
          4.49300000	          0.11642273	          0.33794781	         -0.00477144	         -0.00005057	          0.00000000	          0.00000758	        -22.57792688	        885.69043837	        -66.14882831	          0.25264133	          0.00000000	          0.11764654	          0.00000000	         -0.00000076	          0.00000000	          0.00000000	         10.48130923	          0.00000000	
          4.49400000	          0.11355365	          0.33026277	         -0.00453864	         -0.00008261	          0.00000000	         -0.00000469	        -22.34859842	        885.57836608	        -65.97528169	          0.25293850	          0.00000000	          0.11763632	          0.00000000	          0.00002581	          0.00000000	          0.00000000	         10.43294986	          0.00000000	
          4.49500000	          0.11049943	          0.32198316	         -0.00430848	         -0.00011161	          0.00000000	         -0.00001590	        -22.11930128	        885.47138557	        -65.80365695	          0.25323599	          0.00000000	          0.11762618	          0.00000000	          0.00005001	          0.00000000	          0.00000000	         10.38467238	          0.00000000	
          4.49600000	          0.10728733	          0.31319082	         -0.00408161	         -0.00013772	          0.00000000	         -0.00002610	        -21.88986742	        885.36977293	        -65.63443060	          0.25353376	          0.00000000	          0.11761615	          0.00000000	          0.00007197	          0.00000000	          0.00000000	         10.33646256	          0.00000000	
          4.49700000	          0.10394293	          0.30396256	         -0.00385860	         -0.00016110	          0.00000000	         -0.00003533	        -21.66013005	        885.27379390	        -65.46806313	          0.25383179	          0.00000000	          0.11760628	          0.00000000	          0.00009179	          0.00000000	          0.00000000	         10.28830546	          0.00000000	
          4.49800000	          0.10049010	          0.29437032	         -0.00363998	         -0.00018187	          0.00000000	         -0.00004365	        -21.42992409	        885.18370427	        -65.30499827	          0.25413004	          0.00000000	          0.11759659	          0.00000000	          0.00010958	          0.00000000	          0.00000000	         10.24018557	          0.00000000	
          4.49900000	          0.09695112	          0.28448130	         -0.00342619	         -0.00020020	          0.00000000	         -0.00005109	        -21.19908677	        885.09974993	        -65.14566260	          0.25442849	          0.00000000	          0.11758710	          0.00000000	          0.00012544	          0.00000000	          0.00000000	         10.19208695	          0.00000000	
          4.50000000	          0.09334669	          0.27435810	         -0.00321763	         -0.00021621	          0.00000000	         -0.00005770	        -20.96745839	        885.02216679	        -64.99046518	          0.25472709	          0.00000000	          0.11757785	          0.00000000	          0.00013948	          0.00000000	          0.00000000	         10.14399343	          0.00000000	
          4.50100000	          0.08969598	          0.26405887	         -0.00301464	         -0.00023004	          0.00000000	         -0.00006354	        -20.73488307	        884.95118119	        -64.83979746	          0.25502581	          0.00000000	          0.11756886	          0.00000000	          0.00015180	          0.00000000	          0.00000000	         10.09588879	          0.00000000	
          4.50200000	          0.08601673	          0.25363752	         -0.00281752	         -0.00024182	          0.00000000	         -0.00006864	        -20.50120960	        884.88701064	        -64.69403331	          0.25532461	          0.00000000	          0.11756015	          0.00000000	          0.00016250	          0.00000000	          0.00000000	         10.04775682	          0.00000000	
          4.50300000	          0.08232527	          0.24314379	         -0.00262652	         -0.00025169	          0.00000000	         -0.00007305	        -20.26629204	        884.82986459	        -64.55352889	          0.25562345	          0.00000000	          0.11755175	          0.00000000	          0.00017167	          0.00000000	          0.00000000	          9.99958129	          0.00000000	
          4.50400000	          0.07863658	          0.23262350	         -0.00244182	         -0.00025977	          0.00000000	         -0.00007680	        -20.02999032	        884.77994532	        -64.41862247	          0.25592229	          0.00000000	          0.11754369	          0.00000000	          0.00017941	          0.00000000	          0.00000000	          9.95134589	          0.00000000	
          4.50500000	          0.07496437	          0.22211866	         -0.00226361	         -0.00026618	          0.00000000	         -0.00007995	        -19.79217081	        884.73744903	        -64.28963391	          0.25622108	          0.00000000	          0.11753598	          0.00000000	          0.00018582	          0.00000000	          0.00000000	          9.90303426	          0.00000000	
          4.50600000	          0.07132112	          0.21166765	         -0.00209199	         -0.00027104	          0.00000000	         -0.00008252	        -19.55270689	        884.70256785	        -64.16686403	          0.25651979	          0.00000000	          0.11752865	          0.00000000	          0.00019098	          0.00000000	          0.00000000	          9.85463000	          0.00000000	
          4.50700000	          0.06771812	          0.20130538	         -0.00192706	         -0.00027446	          0.00000000	         -0.00008457	        -19.31147968	        884.67549267	        -64.05059382	          0.25681837	          0.00000000	          0.11752171	          0.00000000	          0.00019499	          0.00000000	          0.00000000	          9.80611687	          0.00000000	
          4.50800000	          0.06416558	          0.19106347	         -0.00176888	         -0.00027656	          0.00000000	         -0.00008612	        -19.06837890	        884.65641649	        -63.94108374	          0.25711680	          0.00000000	          0.11751521	          0.00000000	          0.00019791	          0.00000000	          0.00000000	          9.75747888	          0.00000000	
          4.50900000	          0.06067262	          0.18097039	         -0.00161745	         -0.00027743	          0.00000000	         -0.00008722	        -18.82330361	        884.64553737	        -63.83857310	          0.25741503	          0.00000000	          0.11750915	          0.00000000	          0.00019984	          0.00000000	          0.00000000	          9.70870047	          0.00000000	
          4.51000000	          0.05724737	          0.17105162	         -0.00147279	         -0.00027718	          0.00000000	         -0.00008789	        -18.57616296	        884.64306026	        -63.74327962	          0.25771303	          0.00000000	          0.11750356	          0.00000000	          0.00020085	          0.00000000	          0.00000000	          9.65976647	          0.00000000	
          4.51100000	          0.05389704	          0.16132982	         -0.00133487	         -0.00027590	          0.00000000	         -0.00008817	        -18.32687662	        884.64919731	        -63.65539913	          0.25801078	          0.00000000	          0.11749846	          0.00000000	          0.00020101	          0.00000000	          0.00000000	          9.61066199	          0.00000000	
          4.51200000	          0.05062789	          0.15182497	         -0.00120362	         -0.00027369	          0.00000000	         -0.00008810	        -18.07537498	        884.66416654	        -63.57510517	          0.25830825	          0.00000000	          0.11749388	          0.00000000	          0.00020040	          0.00000000	          0.00000000	          9.56137220	          0.00000000	
          4.51300000	          0.04744540	          0.14255456	         -0.00107899	         -0.00027063	          0.00000000	         -0.00008769	        -17.82159900	        884.68818945	        -63.50254868	          0.25860543	          0.00000000	          0.11748983	          0.00000000	          0.00019908	          0.00000000	          0.00000000	          9.51188224	          0.00000000	
          4.51400000	          0.04435420	          0.13353368	         -0.00096088	         -0.00026681	          0.00000000	         -0.00008700	        -17.56549968	        884.72148836	        -63.43785760	          0.25890231	          0.00000000	          0.11748634	          0.00000000	          0.00019713	          0.00000000	          0.00000000	          9.46217711	          0.00000000	
          4.51500000	          0.04135823	          0.12477520	         -0.00084918	         -0.00026231	          0.00000000	         -0.00008603	        -17.30703739	        884.76428450	        -63.38113676	          0.25919888	          0.00000000	          0.11748340	          0.00000000	          0.00019459	          0.00000000	          0.00000000	          9.41224180	          0.00000000	
